<?xml version="1.0" encoding="UTF-8" standalone="no"?>
<!-- Created with Inkscape (http://www.inkscape.org/) -->

<svg
   width="185.29356mm"
   height="233.69525mm"
   viewBox="0 0 185.29357 233.69525"
   version="1.1"
   id="svg1"
   inkscape:version="1.3 (0e150ed6c4, 2023-07-21)"
   sodipodi:docname="Sous-marin.svg"
   xml:space="preserve"
   xmlns:inkscape="http://www.inkscape.org/namespaces/inkscape"
   xmlns:sodipodi="http://sodipodi.sourceforge.net/DTD/sodipodi-0.dtd"
   xmlns="http://www.w3.org/2000/svg"
   xmlns:svg="http://www.w3.org/2000/svg"><sodipodi:namedview
     id="namedview1"
     pagecolor="#ffffff"
     bordercolor="#000000"
     borderopacity="0.25"
     inkscape:showpageshadow="2"
     inkscape:pageopacity="0.0"
     inkscape:pagecheckerboard="0"
     inkscape:deskcolor="#d1d1d1"
     inkscape:document-units="mm"
     inkscape:zoom="0.69219277"
     inkscape:cx="333.72206"
     inkscape:cy="538.14489"
     inkscape:window-width="1920"
     inkscape:window-height="991"
     inkscape:window-x="-9"
     inkscape:window-y="-9"
     inkscape:window-maximized="1"
     inkscape:current-layer="layer-MC0" /><defs
     id="defs1"><clipPath
       clipPathUnits="userSpaceOnUse"
       id="clipPath9"><path
         d="M 0,841.89 H 595.276 V 0 H 0 Z"
         transform="translate(-504.32422,-136.2478)"
         id="path9" /></clipPath><clipPath
       clipPathUnits="userSpaceOnUse"
       id="clipPath11"><path
         d="M 0,841.89 H 595.276 V 0 H 0 Z"
         transform="translate(-263.1472,-122.72361)"
         id="path11" /></clipPath><clipPath
       clipPathUnits="userSpaceOnUse"
       id="clipPath13"><path
         d="M 0,841.89 H 595.276 V 0 H 0 Z"
         transform="translate(-289.357,-117.61731)"
         id="path13" /></clipPath><clipPath
       clipPathUnits="userSpaceOnUse"
       id="clipPath15"><path
         d="M 0,841.89 H 595.276 V 0 H 0 Z"
         transform="translate(-286.8523,-154.34001)"
         id="path15" /></clipPath><clipPath
       clipPathUnits="userSpaceOnUse"
       id="clipPath17"><path
         d="M 0,841.89 H 595.276 V 0 H 0 Z"
         transform="translate(-286.85311,-118.086)"
         id="path17" /></clipPath><clipPath
       clipPathUnits="userSpaceOnUse"
       id="clipPath9-4"><path
         d="M 0,841.89 H 595.276 V 0 H 0 Z"
         transform="translate(-504.32422,-136.2478)"
         id="path9-8" /></clipPath></defs><g
     inkscape:label="Calque 1"
     inkscape:groupmode="layer"
     id="layer1"
     transform="translate(2.4325565)"><g
       id="g9"
       style="display:none"
       sodipodi:insensitive="true"
       inkscape:label="repères vis"><path
         style="fill:none;fill-rule:evenodd;stroke:#0000ff;stroke-width:0.0784312;stroke-linecap:round;stroke-dasharray:none;stroke-opacity:1"
         d="M 69.000049,80.13516 H 143.00005"
         id="path8" /><path
         style="fill:none;fill-rule:evenodd;stroke:#0000ff;stroke-width:0.0434552;stroke-linecap:round;stroke-dasharray:none;stroke-opacity:1"
         d="m 22.499919,80.13516 h 41"
         id="path8-4" /><path
         style="fill:none;fill-rule:evenodd;stroke:#0000ff;stroke-width:0.1;stroke-linecap:round;stroke-dasharray:none;stroke-opacity:1"
         d="m 143.00005,80.13516 h 6"
         id="path8-4-2" /><path
         style="fill:none;fill-rule:evenodd;stroke:#0000ff;stroke-width:0.1;stroke-linecap:round;stroke-dasharray:none;stroke-opacity:1"
         d="m 63.000049,80.13516 h 6"
         id="path8-4-2-6" /><path
         style="fill:none;fill-rule:evenodd;stroke:#0000ff;stroke-width:0.0413354;stroke-linecap:round;stroke-dasharray:none;stroke-opacity:1"
         d="m 148.50018,80.13516 h 39"
         id="path8-1" /></g><g
       id="g2"
       style="stroke-width:0.1;stroke-dasharray:none"><path
         d="m 160.22026,101.1855 c 16.94171,7.16891 25.26837,27.74197 18.59811,45.95118 -6.67004,18.2093 -25.81126,27.15957 -42.75308,19.99096 -0.0116,-0.004 -0.0226,-0.0107 -0.0341,-0.0156 2.9092,-3.38029 5.3189,-7.36612 6.98763,-11.92172 6.72504,-18.35912 -0.66233,-38.81542 -16.61412,-47.66945 8.98445,-8.456256 21.93764,-11.361616 33.81558,-6.33548 z"
         style="fill:none;fill-rule:evenodd;stroke:#00ff00;stroke-width:0.1;stroke-dasharray:none"
         id="path19-6" /><path
         d="m 75.94986,76.628404 v 20.00001 h 67.66926 c 20.77493,0 37.50003,16.725096 37.50003,37.500036 0,20.77494 -16.7251,37.50003 -37.50003,37.50003 h -36.92953 c 3e-5,-18.22544 -14.77462,-33.00008 -33.00006,-33.00005 -17.351305,0.005 -31.735065,13.44611 -32.91427,30.7573 -14.41179,-5.22213 -24.65637,-18.99862 -24.65637,-35.25728 0,-20.77494 16.72509,-37.500036 37.50003,-37.500036 h 7.92562 v -20.00001 z"
         style="fill:none;fill-rule:evenodd;stroke:#ff0000;stroke-width:0.1;stroke-linecap:round;stroke-dasharray:none"
         id="path18-1"
         sodipodi:nodetypes="ccssscccssccc" /><path
         style="fill:none;fill-rule:evenodd;stroke:#00ff00;stroke-width:0.1;stroke-linecap:round;stroke-dasharray:none;stroke-opacity:1"
         d="M 125.15435,171.62848 V 96.628414"
         id="path73-8" /><path
         style="fill:none;fill-rule:evenodd;stroke:#00ff00;stroke-width:0.1;stroke-linecap:round;stroke-dasharray:none;stroke-opacity:1"
         d="M 117.23297,96.628414 V 171.62848"
         id="path74-8" /><path
         style="fill:none;fill-rule:evenodd;stroke:#00ff00;stroke-width:0.1;stroke-linecap:round;stroke-dasharray:none;stroke-opacity:1"
         d="M 94.76076,146.23146 V 96.628414"
         id="path75-4" /><path
         style="fill:none;fill-rule:evenodd;stroke:#00ff00;stroke-width:0.1;stroke-linecap:round;stroke-dasharray:none;stroke-opacity:1"
         d="M 86.83938,96.628414 V 141.36157"
         id="path77-5" /><path
         style="fill:none;fill-rule:evenodd;stroke:#00ff00;stroke-width:0.1;stroke-linecap:round;stroke-dasharray:none;stroke-opacity:1"
         d="M 64.36717,76.628404 V 139.97535"
         id="path79-2"
         sodipodi:nodetypes="cc" /><path
         style="fill:none;fill-rule:evenodd;stroke:#00ff00;stroke-width:0.1;stroke-linecap:round;stroke-dasharray:none;stroke-opacity:1"
         d="M 56.44579,96.628414 V 143.49788"
         id="path80-1" /><path
         style="fill:none;fill-rule:evenodd;stroke:#00ff00;stroke-width:0.1;stroke-linecap:round;stroke-dasharray:none;stroke-opacity:1"
         d="m 33.97358,102.1472 v 63.96041"
         id="path81-1" /><path
         style="fill:none;fill-rule:evenodd;stroke:#00ff00;stroke-width:0.1;stroke-linecap:round;stroke-dasharray:none;stroke-opacity:1"
         d="m 26.0522,108.65523 v 50.9447"
         id="path82-9" /><ellipse
         style="fill:none;fill-rule:evenodd;stroke:#ff0000;stroke-width:0.1;stroke-dasharray:none"
         id="path83-1"
         cx="-105.99686"
         cy="123.6757"
         rx="6.0138202"
         ry="6.2500181"
         transform="scale(-1,1)" /><ellipse
         style="fill:none;fill-rule:evenodd;stroke:#ff0000;stroke-width:0.1;stroke-dasharray:none"
         id="ellipse84-0"
         cx="-75.603271"
         cy="123.6757"
         rx="6.0138202"
         ry="6.2500181"
         transform="scale(-1,1)" /><ellipse
         style="fill:none;fill-rule:evenodd;stroke:#ff0000;stroke-width:0.1;stroke-dasharray:none"
         id="ellipse85-6"
         cx="-45.20969"
         cy="123.6757"
         rx="6.0138202"
         ry="6.2500181"
         transform="scale(-1,1)" /><circle
         style="fill:none;fill-opacity:1;fill-rule:evenodd;stroke:#ff0000;stroke-width:0.1;stroke-dasharray:none"
         id="path6-9-4"
         cx="34.615211"
         cy="156.9512"
         r="2" /><circle
         style="fill:none;fill-opacity:1;fill-rule:evenodd;stroke:#ff0000;stroke-width:0.1;stroke-dasharray:none"
         id="circle86"
         cx="27.635723"
         cy="152.34201"
         r="2" /></g><g
       id="g1"
       style="stroke-width:0.1;stroke-dasharray:none"><path
         d="M 144.87382,71.37311 C 161.81553,64.2042 170.14219,43.63114 163.47193,25.42193 156.80189,7.21263 137.66067,-1.73764 120.71885,5.43097 c -0.0116,0.004 -0.0226,0.0107 -0.0341,0.0156 2.9092,3.38029 5.31891,7.36612 6.98763,11.92172 6.72504,18.35912 -0.66233,38.81542 -16.61412,47.66945 8.98445,8.45626 21.93764,11.36162 33.81558,6.33548 z"
         style="fill:none;fill-rule:evenodd;stroke:#00ff00;stroke-width:0.1;stroke-dasharray:none"
         id="path90" /><path
         d="M 60.603425,95.93021 V 75.9302 h 67.669255 c 20.77493,0 37.50003,-16.7251 37.50003,-37.50004 0,-20.77494 -16.7251,-37.50003 -37.50003,-37.50003 H 91.343155 c 3e-5,18.22544 -14.77462,33.00008 -33.00006,33.00005 C 40.99179,33.92518 26.60803,20.48407 25.428825,3.17288 11.017035,8.39501 0.772455,22.1715 0.772455,38.43016 c 0,20.77494 16.72509,37.50004 37.50003,37.50004 h 7.92562 v 20.00001 z"
         style="fill:none;fill-rule:evenodd;stroke:#ff0000;stroke-width:0.1;stroke-linecap:round;stroke-dasharray:none"
         id="path91"
         sodipodi:nodetypes="ccssscccssccc" /><path
         style="fill:none;fill-rule:evenodd;stroke:#00ff00;stroke-width:0.1;stroke-linecap:round;stroke-dasharray:none;stroke-opacity:1"
         d="M 109.80792,0.93013 V 75.9302"
         id="path92" /><path
         style="fill:none;fill-rule:evenodd;stroke:#00ff00;stroke-width:0.1;stroke-linecap:round;stroke-dasharray:none;stroke-opacity:1"
         d="M 101.88654,75.9302 V 0.93013"
         id="path93" /><path
         style="fill:none;fill-rule:evenodd;stroke:#00ff00;stroke-width:0.1;stroke-linecap:round;stroke-dasharray:none;stroke-opacity:1"
         d="M 79.414325,26.32715 V 75.9302"
         id="path94" /><path
         style="fill:none;fill-rule:evenodd;stroke:#00ff00;stroke-width:0.1;stroke-linecap:round;stroke-dasharray:none;stroke-opacity:1"
         d="M 71.492945,75.9302 V 31.19704"
         id="path95" /><path
         style="fill:none;fill-rule:evenodd;stroke:#00ff00;stroke-width:0.1;stroke-linecap:round;stroke-dasharray:none;stroke-opacity:1"
         d="M 49.020735,95.93021 V 32.58326"
         id="path96"
         sodipodi:nodetypes="cc" /><path
         style="fill:none;fill-rule:evenodd;stroke:#00ff00;stroke-width:0.1;stroke-linecap:round;stroke-dasharray:none;stroke-opacity:1"
         d="M 41.099355,75.9302 V 29.06073"
         id="path97" /><path
         style="fill:none;fill-rule:evenodd;stroke:#00ff00;stroke-width:0.1;stroke-linecap:round;stroke-dasharray:none;stroke-opacity:1"
         d="M 18.627145,70.41141 V 6.451"
         id="path98" /><path
         style="fill:none;fill-rule:evenodd;stroke:#00ff00;stroke-width:0.1;stroke-linecap:round;stroke-dasharray:none;stroke-opacity:1"
         d="M 10.705765,63.90338 V 12.95868"
         id="path99" /><ellipse
         style="fill:none;fill-rule:evenodd;stroke:#ff0000;stroke-width:0.1;stroke-dasharray:none"
         id="ellipse99"
         cx="-90.650429"
         cy="-48.882919"
         rx="6.0138202"
         ry="6.2500181"
         transform="scale(-1)" /><ellipse
         style="fill:none;fill-rule:evenodd;stroke:#ff0000;stroke-width:0.1;stroke-dasharray:none"
         id="ellipse100"
         cx="-60.25684"
         cy="-48.882919"
         rx="6.0138202"
         ry="6.2500181"
         transform="scale(-1)" /><ellipse
         style="fill:none;fill-rule:evenodd;stroke:#ff0000;stroke-width:0.1;stroke-dasharray:none"
         id="ellipse101"
         cx="-29.863255"
         cy="-48.882919"
         rx="6.0138202"
         ry="6.2500181"
         transform="scale(-1)" /><circle
         style="fill:none;fill-opacity:1;fill-rule:evenodd;stroke:#ff0000;stroke-width:0.1;stroke-dasharray:none"
         id="circle101"
         cx="19.268776"
         cy="-15.607408"
         r="2"
         transform="scale(1,-1)" /><circle
         style="fill:none;fill-opacity:1;fill-rule:evenodd;stroke:#ff0000;stroke-width:0.1;stroke-dasharray:none"
         id="circle102"
         cx="12.289289"
         cy="-20.2166"
         r="2"
         transform="scale(1,-1)" /></g><g
       id="g3"
       transform="translate(-237.91449,-45.392254)"
       style="stroke-width:0.1;stroke-dasharray:none"><g
         inkscape:label="Calque 1"
         id="layer1-0"
         style="stroke-width:0.1;stroke-dasharray:none" /><g
         id="layer-MC0"
         inkscape:label="Calque 1"
         transform="matrix(0.26458333,0,0,0.26458335,220.00001,0)"
         style="stroke-width:0.37795275;stroke-dasharray:none"><path
           id="path8-8"
           d="m 0,0 v -0.049 c -3.065,-1.298 -6.145,-2.561 -9.192,-3.901 -6.333,-2.786 -12.649,-5.609 -18.97,-8.423 -4.437,-1.975 -8.866,-3.97 -13.307,-5.936 -3.85,-1.705 -7.718,-3.372 -11.564,-5.087 -0.504,-0.225 -0.841,-0.129 -1.156,0.233 -0.378,0.434 0.049,0.655 0.26,0.958 1.45,2.075 2.95,4.119 4.302,6.257 1.446,2.287 3.073,4.455 3.9,7.128 0.539,1.739 -0.014,1.872 -1.503,1.871 -40.202,-0.03 -80.404,-0.031 -120.606,-0.015 -2.634,0.001 -4.323,-1.409 -5.603,-3.47 -2.628,-4.233 -2.229,-8.967 -1.705,-13.535 0.442,-3.85 1.575,-7.612 3.059,-11.28 4.128,-10.198 10.115,-18.841 19.925,-24.242 4.477,-2.464 9.393,-3.635 14.613,-3.062 2.226,0.244 4.453,0.51 6.673,0.733 4.128,0.415 8.103,1.529 12.168,2.208 3.675,0.614 7.265,1.718 10.925,2.448 3.983,0.794 7.98,1.522 11.994,2.179 4.812,0.788 9.623,1.381 14.486,1.468 5.58,0.099 11.087,-0.367 16.595,-1.531 6.424,-1.358 12.424,-3.657 18.08,-6.859 7.198,-4.075 13.375,-9.453 18.929,-15.562 0.29,-0.32 0.763,-0.565 0.569,-1.077 -0.208,-0.548 -0.752,-0.339 -1.157,-0.341 -3.514,-0.018 -7.03,0.004 -10.544,-0.022 -12.522,-0.092 -25.043,-0.197 -37.564,-0.301 -0.663,-0.006 -1.494,-0.121 -1.771,0.542 -0.33,0.792 0.588,1.097 1.064,1.442 2.321,1.681 4.733,3.239 7.035,4.947 1.524,1.131 3.013,2.361 3.428,4.4 0.268,1.315 -0.234,1.956 -1.577,1.894 -2.682,-0.125 -5.362,-0.099 -8.049,-0.309 -4.512,-0.352 -8.964,-1.123 -13.401,-1.871 -4.355,-0.733 -8.64,-1.951 -12.942,-3.021 -4.982,-1.239 -9.868,-2.792 -14.781,-4.233 -7.489,-2.198 -14.87,-4.761 -22.754,-5.187 -0.195,-0.011 -0.38,-0.176 -0.57,-0.269 h -5.602 c -1.653,0.613 -3.448,0.267 -5.109,0.718 -6.084,1.652 -11.645,4.368 -16.583,8.327 -3.414,2.736 -6.455,5.845 -9.524,8.958 -4.172,4.231 -7.505,8.958 -9.94,14.338 -2.68,5.92 -4.302,12.21 -6.279,18.375 -1.259,3.925 -2.836,7.64 -5.459,10.924 -2.823,3.534 -6.125,5.193 -10.684,4.163 -0.958,-0.217 -1.501,-0.489 -1.623,-1.38 -0.316,-2.319 -3.802,-3.88 -5.997,-2.739 -0.884,0.46 -1.589,0.276 -2.479,0.031 -3.47,-0.956 -6.951,-1.07 -10.433,0.131 -3.028,1.043 -5.121,3.114 -6.691,5.789 -0.332,0.566 -0.299,0.664 -0.939,0.204 -2.368,-1.706 -5.77,-1.174 -7.067,1.122 -0.191,0.338 -0.388,0.566 -0.603,0.717 h -7.767 c -1.37,-0.021 -2.74,-0.045 -4.107,-0.121 -0.564,-0.031 -1.083,0.016 -1.561,0.121 H -453.543 V 0.001 11.198 h 194.385 c 0.478,0.105 0.997,0.152 1.561,0.121 1.367,-0.076 2.737,-0.1 4.107,-0.121 h 7.767 c 0.215,0.152 0.412,0.379 0.603,0.717 1.297,2.296 4.699,2.828 7.067,1.123 0.64,-0.461 0.607,-0.363 0.939,0.203 1.57,2.675 3.663,4.746 6.691,5.79 3.482,1.2 6.963,1.086 10.433,0.13 0.89,-0.245 1.595,-0.429 2.479,0.031 2.195,1.141 5.681,-0.42 5.997,-2.739 0.122,-0.891 0.665,-1.163 1.623,-1.38 4.559,-1.03 7.861,0.629 10.684,4.164 2.623,3.283 4.2,6.998 5.459,10.923 1.977,6.165 3.599,12.455 6.279,18.375 2.435,5.38 5.768,10.107 9.94,14.338 3.069,3.113 6.11,6.222 9.524,8.958 4.938,3.959 10.499,6.675 16.583,8.327 1.661,0.452 3.456,0.105 5.109,0.718 h 5.602 c 0.19,-0.093 0.375,-0.258 0.57,-0.269 7.884,-0.426 15.265,-2.989 22.754,-5.187 4.913,-1.441 9.799,-2.994 14.781,-4.233 4.302,-1.07 8.587,-2.288 12.942,-3.021 4.437,-0.748 8.889,-1.519 13.401,-1.871 2.687,-0.209 5.367,-0.184 8.049,-0.309 1.343,-0.062 1.845,0.579 1.577,1.894 -0.415,2.039 -1.904,3.269 -3.428,4.4 -2.302,1.708 -4.714,3.266 -7.035,4.947 -0.476,0.345 -1.394,0.65 -1.064,1.442 0.277,0.663 1.108,0.548 1.771,0.542 12.521,-0.104 25.042,-0.209 37.564,-0.301 3.514,-0.026 7.03,-0.004 10.544,-0.022 0.405,-0.002 0.949,0.207 1.157,-0.341 0.194,-0.512 -0.279,-0.757 -0.569,-1.077 -5.554,-6.109 -11.731,-11.487 -18.929,-15.562 -5.656,-3.202 -11.656,-5.501 -18.08,-6.859 -5.508,-1.164 -11.015,-1.63 -16.595,-1.531 -4.863,0.087 -9.674,0.68 -14.486,1.468 -4.014,0.657 -8.011,1.385 -11.994,2.179 -3.66,0.73 -7.25,1.834 -10.925,2.448 -4.065,0.679 -8.04,1.793 -12.168,2.208 -2.22,0.223 -4.447,0.489 -6.673,0.733 -5.22,0.573 -10.136,-0.598 -14.613,-3.062 -9.81,-5.401 -15.797,-14.044 -19.925,-24.242 -1.484,-3.667 -2.617,-7.429 -3.059,-11.28 -0.524,-4.567 -0.923,-9.302 1.705,-13.535 1.28,-2.061 2.969,-3.471 5.603,-3.47 40.202,0.016 80.404,0.015 120.606,-0.015 1.489,-0.001 2.042,0.132 1.503,1.871 -0.827,2.673 -2.454,4.842 -3.9,7.128 -1.352,2.138 -2.852,4.182 -4.302,6.257 -0.211,0.303 -0.638,0.524 -0.26,0.958 0.315,0.362 0.652,0.458 1.156,0.233 3.846,-1.715 7.714,-3.382 11.564,-5.087 4.441,-1.966 8.87,-3.961 13.307,-5.936 C -21.841,9.56 -15.525,6.737 -9.192,3.951 -6.145,2.611 -3.065,1.348 0,0.05 V 0.001"
           style="fill:none;stroke:#ff0000;stroke-width:0.28346457;stroke-linecap:butt;stroke-linejoin:miter;stroke-miterlimit:10;stroke-dasharray:none;stroke-opacity:1"
           transform="matrix(1.3333333,0,0,-1.3333333,672.43227,940.85627)"
           clip-path="url(#clipPath9)" /><path
           id="path10"
           d="m 0,0 v 0 c -2.274,0 -4.117,1.843 -4.117,4.117 v 18.83 c 0,2.274 1.843,4.117 4.117,4.117 v 0 c 2.274,0 4.117,-1.843 4.117,-4.117 V 4.117 C 4.117,1.843 2.274,0 0,0 Z"
           style="fill:none;fill-opacity:1;stroke:#000000;stroke-width:0.28346457;stroke-linecap:butt;stroke-linejoin:miter;stroke-miterlimit:10;stroke-dasharray:none;stroke-opacity:1"
           transform="matrix(1.3333333,0,0,-1.3333333,350.86293,958.88853)"
           clip-path="url(#clipPath11)" /><path
           id="path12"
           d="m 0,0 h -0.873 c -1.639,0 -2.968,1.329 -2.968,2.968 v 31.277 c 0,1.639 1.329,2.968 2.968,2.968 H 0 c 1.639,0 2.968,-1.329 2.968,-2.968 V 2.968 C 2.968,1.329 1.639,0 0,0 Z"
           style="fill:none;fill-opacity:1;stroke:#000000;stroke-width:0.28346457;stroke-linecap:butt;stroke-linejoin:miter;stroke-miterlimit:10;stroke-dasharray:none;stroke-opacity:1"
           transform="matrix(1.3333333,0,0,-1.3333333,385.80933,965.69693)"
           clip-path="url(#clipPath13)" /><path
           id="path14"
           d="m 0,0 c -0.621,-0.085 -1.551,-0.144 -2.634,0.075 -0.707,0.143 -1.195,0.347 -1.425,0.436 -0.923,0.358 -2.402,0.706 -4.809,0.596 -1.294,-0.158 -3.972,-0.661 -6.681,-2.596 -2.597,-1.855 -3.929,-4.103 -4.514,-5.26"
           style="fill:none;fill-opacity:1;stroke:#000000;stroke-width:0.28346457;stroke-linecap:butt;stroke-linejoin:miter;stroke-miterlimit:10;stroke-dasharray:none;stroke-opacity:1"
           transform="matrix(1.3333333,0,0,-1.3333333,382.46973,916.73333)"
           clip-path="url(#clipPath15)" /><path
           id="path16"
           d="m 0,0 c -0.621,0.085 -1.551,0.144 -2.634,-0.075 -0.707,-0.143 -1.195,-0.347 -1.425,-0.436 -0.923,-0.358 -2.402,-0.706 -4.809,-0.596 -1.294,0.158 -3.972,0.661 -6.681,2.596 -2.597,1.855 -3.929,4.103 -4.514,5.26"
           style="fill:none;fill-opacity:1;stroke:#000000;stroke-width:0.28346457;stroke-linecap:butt;stroke-linejoin:miter;stroke-miterlimit:10;stroke-dasharray:none;stroke-opacity:1"
           transform="matrix(1.3333333,0,0,-1.3333333,382.4708,965.072)"
           clip-path="url(#clipPath17)" /><g
           id="layer101"
           fill="#000000"
           stroke="none"
           transform="matrix(0,0.01318791,-0.01318791,0,469.31674,900.79702)"
           style="stroke-width:28.6590332;stroke-dasharray:none"><path
             d="m 2630,4184 c -25,-2 -112,-9 -195,-14 -430,-31 -885,-115 -1156,-213 -244,-90 -371,-169 -440,-276 -41,-64 -41,-148 -1,-212 90,-141 349,-269 731,-360 120,-29 172,-34 94,-9 -55,18 -203,96 -235,125 -119,104 -101,212 50,309 274,175 843,276 1562,276 719,0 1288,-101 1562,-276 151,-97 169,-205 50,-309 -32,-29 -180,-107 -235,-125 -78,-25 -26,-20 94,9 382,91 641,219 731,360 40,64 40,148 -1,212 -69,107 -196,186 -440,276 -262,95 -671,172 -1136,213 -123,11 -938,22 -1035,14 z"
             id="path1"
             style="stroke-width:28.6590332;stroke-dasharray:none" /><path
             d="m 2565,3674 c -451,-44 -783,-143 -912,-271 -51,-50 -53,-53 -53,-108 0,-53 3,-59 46,-105 32,-34 74,-63 137,-94 85,-42 276,-104 372,-121 54,-10 35,8 -31,29 -106,35 -174,97 -174,160 0,84 176,173 440,224 210,41 295,47 640,47 345,0 430,-6 640,-47 275,-53 440,-140 440,-232 0,-58 -65,-115 -174,-152 -49,-17 -64,-39 -18,-28 243,58 422,135 496,214 44,47 46,52 46,107 0,56 -1,58 -52,107 -136,131 -468,227 -933,271 -201,19 -712,18 -910,-1 z"
             id="path2"
             style="stroke-width:28.6590332;stroke-dasharray:none" /><path
             d="m 2883,3255 c -124,-34 -252,-123 -327,-228 -92,-131 -124,-232 -127,-407 -2,-102 1,-124 25,-196 29,-87 33,-94 204,-365 120,-192 196,-335 249,-472 37,-98 73,-235 73,-284 0,-23 5,-33 15,-33 10,0 15,10 15,33 0,49 36,186 73,284 53,137 129,280 249,472 171,271 175,278 204,365 24,72 27,94 25,196 -2,122 -23,225 -62,303 -127,251 -390,392 -616,332 z"
             id="path3"
             style="stroke-width:28.6590332;stroke-dasharray:none" /></g><g
           id="g27"
           transform="matrix(0.94202691,0,0,0.94202691,40.100678,55.342969)"
           style="stroke-width:0.40121227;stroke-dasharray:none"><path
             id="path21"
             style="fill:#000000;stroke-width:0.40121227;stroke-dasharray:none"
             d="m 177.66296,929.11367 c -2.7092,1.32891 -5.5758,3.72042 -8.51506,7.15519 -5.8943,6.88799 -10.61528,9.38261 -14.92876,7.88816 -1.30797,-0.45316 -1.35376,-0.38433 -0.2626,0.39683 4.56602,3.26881 9.76779,1.01731 18.28379,-7.91589 6.73196,-7.06177 12.72668,-8.74927 17.24677,-4.8537 0.77266,0.6659 0.78337,0.51591 0.0255,-0.3648 -3.25501,-3.78271 -7.33431,-4.52066 -11.84965,-2.30579 z m 6.80062,-2.32084 c -0.16399,-0.0133 0.13139,0.13572 0.96648,0.4556 5.00975,1.91886 7.83707,7.37293 6.46224,12.46433 l -0.13418,0.49642 0.047,-0.67266 c 0.17222,-2.47964 -1.21895,-6.0142 -2.94999,-7.49642 -0.3219,-0.27562 -0.31992,-0.26155 0.0526,0.32381 3.85167,6.05111 0.644,13.73766 -6.27739,15.04061 -1.38917,0.26151 -1.34797,0.22753 -0.88591,0.72281 2.4897,2.66867 6.42854,3.86964 10.04296,3.06217 6.74471,-1.50679 10.16056,-9.10663 6.87225,-15.28964 -0.91854,-1.72713 -1.15987,-1.78765 -0.37004,-0.093 2.15926,4.63277 0.55793,10.27612 -3.69957,13.038 l -0.44311,0.28784 0.34179,-0.35462 c 1.83972,-1.91116 2.82362,-4.17007 2.9277,-6.71971 0.049,-1.20079 -0.0706,-1.63043 -0.18241,-0.65374 -0.7115,6.21433 -7.41698,10.06804 -13.32995,7.66075 -1.71808,-0.69947 -2.3038,-1.16107 -0.87002,-0.68531 11.45117,3.79977 19.32144,-11.80135 9.38964,-18.61255 -0.84919,-0.58245 -0.7503,-0.37181 0.23167,0.49495 3.77495,3.33197 4.45607,9.19848 1.56658,13.49204 -0.30629,0.45513 -0.29576,0.36642 0.10653,-0.87966 0.70912,-2.19654 0.66734,-4.281 -0.13241,-6.56051 -0.36503,-1.04047 -0.50541,-0.89365 -0.23934,0.25028 1.34576,5.78598 -3.69763,11.69761 -9.79214,11.47769 -0.97338,-0.0351 -2.27066,-0.22685 -2.09625,-0.30994 0.0682,-0.0325 0.19761,-0.0341 0.28744,-0.004 1.22576,0.41381 4.92206,-0.727 6.71789,-2.07322 6.71823,-5.03623 5.07574,-15.70742 -2.82275,-18.33958 -1.00024,-0.33332 -1.62347,-0.50959 -1.78747,-0.52296 z" /><path
             id="path19"
             style="fill:#000000;stroke-width:0.40121227;stroke-dasharray:none"
             d="m 146.78806,929.58966 c -4.95285,2.42077 -8.31549,8.47886 -5.03696,14.62787 0.90201,1.69177 1.13464,1.72681 0.35811,0.0541 -2.12906,-4.58621 -0.6692,-9.9684 3.5065,-12.92814 0.68969,-0.48886 0.65794,-0.37011 -0.12168,0.4577 -1.69579,1.80063 -2.72293,4.6567 -2.5392,7.06146 0.0411,0.5383 0.11788,0.3711 0.27705,-0.60493 1.04223,-6.39081 8.33123,-9.93868 14.11987,-6.87314 1.13072,0.59879 1.42158,0.89068 0.45313,0.45438 -10.83373,-4.88065 -19.59533,10.52798 -10.289,18.09468 1.12523,0.91487 1.53063,1.04746 0.51959,0.16991 -3.90507,-3.38947 -4.78879,-9.1875 -2.06089,-13.51809 0.61357,-0.97405 0.65316,-0.96602 0.24845,0.0485 -0.74738,1.87339 -0.86599,4.17815 -0.31823,6.18124 0.49902,1.82488 0.9055,2.34767 0.51251,0.65953 -1.41769,-6.08982 4.35307,-12.21978 10.71367,-11.38131 1.22001,0.16082 1.2903,0.2052 0.35264,0.22723 -12.28287,0.28853 -14.25035,17.5669 -2.3621,20.74392 1.11732,0.2986 1.03145,0.16077 -0.17553,-0.28085 -4.78867,-1.75215 -7.83082,-7.33639 -6.53978,-12.00514 l 0.18414,-0.66507 9.1e-4,0.86724 c 0.004,2.25966 1.03421,5.00089 2.46736,6.55797 0.84064,0.91335 0.91483,0.83453 0.20467,-0.2181 -3.84363,-5.69729 0.13854,-13.98922 7.08041,-14.74337 l 0.74265,-0.0812 -0.232,-0.28607 c -3.39965,-4.18606 -8.21418,-4.50307 -12.0664,-2.62026 z m 3.49528,18.30302 c -0.0207,0.013 -0.0217,0.0439 0.003,0.0953 1.43383,3.04899 6.81352,4.88612 10.77012,3.67799 3.2506,-0.99256 6.44038,-3.44562 10.09173,-7.76315 5.88923,-6.96372 10.90893,-9.57619 15.25331,-7.93695 1.33053,0.50204 1.32034,0.42889 -0.0674,-0.51072 -4.65485,-3.15149 -10.21804,-0.63664 -18.59275,8.40339 -6.02622,6.50499 -12.99037,8.2784 -16.95898,4.31895 -0.20487,-0.20442 -0.43634,-0.32431 -0.49837,-0.28478 z" /></g><path
           id="path6"
           style="fill:#000000;stroke-width:0.37795275;stroke-dasharray:none"
           d="m 612.332,852.72184 c 2.47148,-3.12544 2.71147,-8.02903 -1.2686,-11.16718 -1.15248,-0.90869 -1.37726,-0.94131 -0.35028,-0.0511 2.96061,2.5664 3.60833,6.99285 1.48237,10.1301 l -0.2449,0.36163 0.20146,-0.53572 c 0.6538,-1.73719 0.60466,-3.72684 -0.136,-5.47884 -0.34193,-0.80876 -0.43568,-0.86951 -0.22787,-0.1479 1.49226,5.18236 -3.09789,10.06858 -8.53188,9.08213 -0.0527,-0.01 0.31277,-0.0506 0.81263,-0.091 7.0121,-0.56575 9.80946,-9.26178 4.44787,-13.8274 -1.16758,-0.99424 -2.96512,-1.79465 -4.14709,-1.8465 -0.25185,-0.011 -0.1129,0.10035 0.18316,0.14683 3.62524,0.56961 6.52735,4.91741 5.87932,8.80799 l -0.12013,0.72245 -0.0502,-0.77317 c -0.12333,-1.91748 -0.85647,-3.57897 -2.14007,-4.84988 -0.6226,-0.61649 -0.64461,-0.58663 -0.11551,0.15899 2.91337,4.10547 0.51606,10.48722 -4.22488,11.24654 l -0.35746,0.0569 0.52331,-0.24883 c 7.88621,-3.74692 4.63844,-15.66156 -4.07608,-14.95294 -0.55252,0.0449 -1.02127,0.0556 -1.04118,0.0239 -0.0199,-0.0317 -0.0414,-0.0238 -0.0477,0.0181 -0.006,0.0415 -0.0686,0.0935 -0.13776,0.11558 -0.30511,0.0975 -0.0645,0.12397 0.59029,0.0648 3.73623,-0.33744 7.11045,2.02531 8.16828,5.71961 0.27825,0.97198 0.24997,1.27352 -0.0494,0.52435 -0.72312,-1.80929 -2.86562,-3.81577 -4.36622,-4.08853 -0.12868,-0.0234 -0.17325,-0.0158 -0.0987,0.0167 4.86199,2.11872 5.12907,9.71587 0.44354,12.62346 -0.6029,0.37409 -0.60468,0.36564 0.1188,0.63791 3.68671,1.38741 6.95883,0.0323 8.88109,-2.39852 z m -8.41156,-11.14953 c 0.0115,-0.0428 -0.26057,-0.19647 -0.76346,-0.41614 -2.82135,-1.2325 -5.53369,-0.75416 -7.88672,1.3914 -1.73529,1.58227 -3.21285,4.46361 -4.33097,8.44409 -1.8564,6.60879 -4.9303,10.1566 -8.56158,9.88197 l -0.29271,-0.0223 0.22997,0.0957 c 4.22035,1.74672 7.77686,-1.80655 10.91341,-10.90391 2.33772,-6.78042 5.9804,-9.77896 10.35437,-8.52319 0.22216,0.0637 0.33083,0.0782 0.33769,0.0524 z" /><path
           id="path6-8"
           style="fill:#000000;stroke-width:0.37795275;stroke-dasharray:none"
           d="m 613.59749,1029.9908 c 2.47148,3.1254 2.71147,8.029 -1.2686,11.1672 -1.15248,0.9087 -1.37726,0.9413 -0.35028,0.051 2.96061,-2.5664 3.60833,-6.9929 1.48237,-10.1301 l -0.2449,-0.3617 0.20146,0.5358 c 0.6538,1.7372 0.60466,3.7268 -0.136,5.4788 -0.34193,0.8088 -0.43568,0.8695 -0.22787,0.1479 1.49226,-5.1824 -3.09789,-10.0686 -8.53188,-9.0821 -0.0527,0.01 0.31277,0.051 0.81263,0.091 7.0121,0.5657 9.80946,9.2618 4.44787,13.8274 -1.16758,0.9942 -2.96512,1.7946 -4.14709,1.8465 -0.25185,0.011 -0.1129,-0.1004 0.18316,-0.1469 3.62524,-0.5696 6.52735,-4.9174 5.87932,-8.8079 l -0.12013,-0.7225 -0.0502,0.7732 c -0.12333,1.9175 -0.85647,3.5789 -2.14007,4.8499 -0.6226,0.6164 -0.64461,0.5866 -0.11551,-0.159 2.91337,-4.1055 0.51606,-10.4873 -4.22488,-11.2466 l -0.35746,-0.057 0.52331,0.2489 c 7.88621,3.7469 4.63844,15.6615 -4.07608,14.9529 -0.55252,-0.045 -1.02127,-0.056 -1.04118,-0.024 -0.0199,0.032 -0.0414,0.024 -0.0477,-0.018 -0.006,-0.042 -0.0686,-0.093 -0.13776,-0.1156 -0.30511,-0.097 -0.0645,-0.124 0.59029,-0.065 3.73623,0.3375 7.11045,-2.0253 8.16828,-5.7196 0.27825,-0.972 0.24997,-1.2735 -0.0494,-0.5243 -0.72312,1.8092 -2.86562,3.8157 -4.36622,4.0885 -0.12868,0.023 -0.17325,0.016 -0.0987,-0.017 4.86199,-2.1187 5.12907,-9.7159 0.44354,-12.6235 -0.6029,-0.3741 -0.60468,-0.3656 0.1188,-0.6379 3.68671,-1.3874 6.95883,-0.032 8.88109,2.3985 z m -8.41156,11.1495 c 0.0115,0.043 -0.26057,0.1965 -0.76346,0.4162 -2.82135,1.2325 -5.53369,0.7541 -7.88672,-1.3914 -1.73529,-1.5823 -3.21285,-4.4636 -4.33097,-8.4441 -1.8564,-6.6088 -4.9303,-10.1566 -8.56158,-9.882 l -0.29271,0.022 0.22997,-0.096 c 4.22035,-1.7467 7.77686,1.8066 10.91341,10.9039 2.33772,6.7804 5.9804,9.779 10.35437,8.5232 0.22216,-0.064 0.33083,-0.078 0.33769,-0.052 z" /></g></g></g></svg>
