<?xml version="1.0" encoding="UTF-8" standalone="no"?>
<!-- Created with Inkscape (http://www.inkscape.org/) -->

<svg
   width="182.86101mm"
   height="174.29103mm"
   viewBox="0 0 182.86101 174.29103"
   version="1.1"
   id="svg1"
   inkscape:version="1.3 (0e150ed6c4, 2023-07-21)"
   sodipodi:docname="Sous-marin.svg"
   xmlns:inkscape="http://www.inkscape.org/namespaces/inkscape"
   xmlns:sodipodi="http://sodipodi.sourceforge.net/DTD/sodipodi-0.dtd"
   xmlns="http://www.w3.org/2000/svg"
   xmlns:svg="http://www.w3.org/2000/svg">
  <sodipodi:namedview
     id="namedview1"
     pagecolor="#ffffff"
     bordercolor="#000000"
     borderopacity="0.25"
     inkscape:showpageshadow="2"
     inkscape:pageopacity="0.0"
     inkscape:pagecheckerboard="0"
     inkscape:deskcolor="#d1d1d1"
     inkscape:document-units="mm"
     inkscape:zoom="0.69219277"
     inkscape:cx="183.4749"
     inkscape:cy="289.65919"
     inkscape:window-width="1920"
     inkscape:window-height="991"
     inkscape:window-x="-9"
     inkscape:window-y="-9"
     inkscape:window-maximized="1"
     inkscape:current-layer="layer1" />
  <defs
     id="defs1" />
  <g
     inkscape:label="Calque 1"
     inkscape:groupmode="layer"
     id="layer1">
    <g
       id="g9"
       style="display:none"
       sodipodi:insensitive="true"
       inkscape:label="repères vis">
      <path
         style="fill:none;fill-rule:evenodd;stroke:#0000ff;stroke-width:0.0784312;stroke-linecap:round;stroke-dasharray:none;stroke-opacity:1"
         d="M 69.000049,80.13516 H 143.00005"
         id="path8" />
      <path
         style="fill:none;fill-rule:evenodd;stroke:#0000ff;stroke-width:0.0434552;stroke-linecap:round;stroke-dasharray:none;stroke-opacity:1"
         d="m 22.499919,80.13516 h 41"
         id="path8-4" />
      <path
         style="fill:none;fill-rule:evenodd;stroke:#0000ff;stroke-width:0.1;stroke-linecap:round;stroke-dasharray:none;stroke-opacity:1"
         d="m 143.00005,80.13516 h 6"
         id="path8-4-2" />
      <path
         style="fill:none;fill-rule:evenodd;stroke:#0000ff;stroke-width:0.1;stroke-linecap:round;stroke-dasharray:none;stroke-opacity:1"
         d="m 63.000049,80.13516 h 6"
         id="path8-4-2-6" />
      <path
         style="fill:none;fill-rule:evenodd;stroke:#0000ff;stroke-width:0.0413354;stroke-linecap:round;stroke-dasharray:none;stroke-opacity:1"
         d="m 148.50018,80.13516 h 39"
         id="path8-1" />
    </g>
    <g
       id="g2">
      <path
         d="m 160.22026,101.1855 c 16.94171,7.16891 25.26837,27.74197 18.59811,45.95118 -6.67004,18.2093 -25.81126,27.15957 -42.75308,19.99096 -0.0116,-0.004 -0.0226,-0.0107 -0.0341,-0.0156 2.9092,-3.38029 5.3189,-7.36612 6.98763,-11.92172 6.72504,-18.35912 -0.66233,-38.81542 -16.61412,-47.66945 8.98445,-8.456256 21.93764,-11.361616 33.81558,-6.33548 z"
         style="fill:none;fill-rule:evenodd;stroke:#00ff00;stroke-width:0.0977826"
         id="path19-6" />
      <path
         d="m 75.94986,76.628404 v 20.00001 h 67.66926 c 20.77493,0 37.50003,16.725096 37.50003,37.500036 0,20.77494 -16.7251,37.50003 -37.50003,37.50003 h -36.92953 c 3e-5,-18.22544 -14.77462,-33.00008 -33.00006,-33.00005 -17.351305,0.005 -31.735065,13.44611 -32.91427,30.7573 -14.41179,-5.22213 -24.65637,-18.99862 -24.65637,-35.25728 0,-20.77494 16.72509,-37.500036 37.50003,-37.500036 h 7.92562 v -20.00001 z"
         style="fill:none;fill-rule:evenodd;stroke:#ff0000;stroke-width:0.1;stroke-linecap:round"
         id="path18-1"
         sodipodi:nodetypes="ccssscccssccc" />
      <path
         style="fill:none;fill-rule:evenodd;stroke:#00ff00;stroke-width:0.1;stroke-linecap:round;stroke-dasharray:none;stroke-opacity:1"
         d="M 125.15435,171.62848 V 96.628414"
         id="path73-8" />
      <path
         style="fill:none;fill-rule:evenodd;stroke:#00ff00;stroke-width:0.1;stroke-linecap:round;stroke-dasharray:none;stroke-opacity:1"
         d="M 117.23297,96.628414 V 171.62848"
         id="path74-8" />
      <path
         style="fill:none;fill-rule:evenodd;stroke:#00ff00;stroke-width:0.1;stroke-linecap:round;stroke-dasharray:none;stroke-opacity:1"
         d="M 94.76076,146.23146 V 96.628414"
         id="path75-4" />
      <path
         style="fill:none;fill-rule:evenodd;stroke:#00ff00;stroke-width:0.1;stroke-linecap:round;stroke-dasharray:none;stroke-opacity:1"
         d="M 86.83938,96.628414 V 141.36157"
         id="path77-5" />
      <path
         style="fill:none;fill-rule:evenodd;stroke:#00ff00;stroke-width:0.1;stroke-linecap:round;stroke-dasharray:none;stroke-opacity:1"
         d="M 64.36717,76.628404 V 139.97535"
         id="path79-2"
         sodipodi:nodetypes="cc" />
      <path
         style="fill:none;fill-rule:evenodd;stroke:#00ff00;stroke-width:0.1;stroke-linecap:round;stroke-dasharray:none;stroke-opacity:1"
         d="M 56.44579,96.628414 V 143.49788"
         id="path80-1" />
      <path
         style="fill:none;fill-rule:evenodd;stroke:#00ff00;stroke-width:0.0959463;stroke-linecap:round;stroke-dasharray:none;stroke-opacity:1"
         d="m 33.97358,102.1472 v 63.96041"
         id="path81-1" />
      <path
         style="fill:none;fill-rule:evenodd;stroke:#00ff00;stroke-width:0.0899451;stroke-linecap:round;stroke-dasharray:none;stroke-opacity:1"
         d="m 26.0522,108.65523 v 50.9447"
         id="path82-9" />
      <ellipse
         style="fill:none;fill-rule:evenodd;stroke:#ff0000;stroke-width:0.1;stroke-dasharray:none"
         id="path83-1"
         cx="-105.99686"
         cy="123.6757"
         rx="6.0138202"
         ry="6.2500181"
         transform="scale(-1,1)" />
      <ellipse
         style="fill:none;fill-rule:evenodd;stroke:#ff0000;stroke-width:0.1;stroke-dasharray:none"
         id="ellipse84-0"
         cx="-75.603271"
         cy="123.6757"
         rx="6.0138202"
         ry="6.2500181"
         transform="scale(-1,1)" />
      <ellipse
         style="fill:none;fill-rule:evenodd;stroke:#ff0000;stroke-width:0.1;stroke-dasharray:none"
         id="ellipse85-6"
         cx="-45.20969"
         cy="123.6757"
         rx="6.0138202"
         ry="6.2500181"
         transform="scale(-1,1)" />
      <circle
         style="fill:none;fill-opacity:1;fill-rule:evenodd;stroke:#ff0000;stroke-width:0.1;stroke-dasharray:none"
         id="path6-9-4"
         cx="34.615211"
         cy="156.9512"
         r="2" />
      <circle
         style="fill:none;fill-opacity:1;fill-rule:evenodd;stroke:#ff0000;stroke-width:0.1;stroke-dasharray:none"
         id="circle86"
         cx="27.635723"
         cy="152.34201"
         r="2" />
    </g>
    <g
       id="g1">
      <path
         d="M 144.87382,71.37311 C 161.81553,64.2042 170.14219,43.63114 163.47193,25.42193 156.80189,7.21263 137.66067,-1.73764 120.71885,5.43097 c -0.0116,0.004 -0.0226,0.0107 -0.0341,0.0156 2.9092,3.38029 5.31891,7.36612 6.98763,11.92172 6.72504,18.35912 -0.66233,38.81542 -16.61412,47.66945 8.98445,8.45626 21.93764,11.36162 33.81558,6.33548 z"
         style="fill:none;fill-rule:evenodd;stroke:#00ff00;stroke-width:0.0977826"
         id="path90" />
      <path
         d="M 60.603425,95.93021 V 75.9302 h 67.669255 c 20.77493,0 37.50003,-16.7251 37.50003,-37.50004 0,-20.77494 -16.7251,-37.50003 -37.50003,-37.50003 H 91.343155 c 3e-5,18.22544 -14.77462,33.00008 -33.00006,33.00005 C 40.99179,33.92518 26.60803,20.48407 25.428825,3.17288 11.017035,8.39501 0.772455,22.1715 0.772455,38.43016 c 0,20.77494 16.72509,37.50004 37.50003,37.50004 h 7.92562 v 20.00001 z"
         style="fill:none;fill-rule:evenodd;stroke:#ff0000;stroke-width:0.1;stroke-linecap:round"
         id="path91"
         sodipodi:nodetypes="ccssscccssccc" />
      <path
         style="fill:none;fill-rule:evenodd;stroke:#00ff00;stroke-width:0.1;stroke-linecap:round;stroke-dasharray:none;stroke-opacity:1"
         d="M 109.80792,0.93013 V 75.9302"
         id="path92" />
      <path
         style="fill:none;fill-rule:evenodd;stroke:#00ff00;stroke-width:0.1;stroke-linecap:round;stroke-dasharray:none;stroke-opacity:1"
         d="M 101.88654,75.9302 V 0.93013"
         id="path93" />
      <path
         style="fill:none;fill-rule:evenodd;stroke:#00ff00;stroke-width:0.1;stroke-linecap:round;stroke-dasharray:none;stroke-opacity:1"
         d="M 79.414325,26.32715 V 75.9302"
         id="path94" />
      <path
         style="fill:none;fill-rule:evenodd;stroke:#00ff00;stroke-width:0.1;stroke-linecap:round;stroke-dasharray:none;stroke-opacity:1"
         d="M 71.492945,75.9302 V 31.19704"
         id="path95" />
      <path
         style="fill:none;fill-rule:evenodd;stroke:#00ff00;stroke-width:0.1;stroke-linecap:round;stroke-dasharray:none;stroke-opacity:1"
         d="M 49.020735,95.93021 V 32.58326"
         id="path96"
         sodipodi:nodetypes="cc" />
      <path
         style="fill:none;fill-rule:evenodd;stroke:#00ff00;stroke-width:0.1;stroke-linecap:round;stroke-dasharray:none;stroke-opacity:1"
         d="M 41.099355,75.9302 V 29.06073"
         id="path97" />
      <path
         style="fill:none;fill-rule:evenodd;stroke:#00ff00;stroke-width:0.0959463;stroke-linecap:round;stroke-dasharray:none;stroke-opacity:1"
         d="M 18.627145,70.41141 V 6.451"
         id="path98" />
      <path
         style="fill:none;fill-rule:evenodd;stroke:#00ff00;stroke-width:0.0899451;stroke-linecap:round;stroke-dasharray:none;stroke-opacity:1"
         d="M 10.705765,63.90338 V 12.95868"
         id="path99" />
      <ellipse
         style="fill:none;fill-rule:evenodd;stroke:#ff0000;stroke-width:0.1;stroke-dasharray:none"
         id="ellipse99"
         cx="-90.650429"
         cy="-48.882919"
         rx="6.0138202"
         ry="6.2500181"
         transform="scale(-1)" />
      <ellipse
         style="fill:none;fill-rule:evenodd;stroke:#ff0000;stroke-width:0.1;stroke-dasharray:none"
         id="ellipse100"
         cx="-60.25684"
         cy="-48.882919"
         rx="6.0138202"
         ry="6.2500181"
         transform="scale(-1)" />
      <ellipse
         style="fill:none;fill-rule:evenodd;stroke:#ff0000;stroke-width:0.1;stroke-dasharray:none"
         id="ellipse101"
         cx="-29.863255"
         cy="-48.882919"
         rx="6.0138202"
         ry="6.2500181"
         transform="scale(-1)" />
      <circle
         style="fill:none;fill-opacity:1;fill-rule:evenodd;stroke:#ff0000;stroke-width:0.1;stroke-dasharray:none"
         id="circle101"
         cx="19.268776"
         cy="-15.607408"
         r="2"
         transform="scale(1,-1)" />
      <circle
         style="fill:none;fill-opacity:1;fill-rule:evenodd;stroke:#ff0000;stroke-width:0.1;stroke-dasharray:none"
         id="circle102"
         cx="12.289289"
         cy="-20.2166"
         r="2"
         transform="scale(1,-1)" />
    </g>
  </g>
</svg>
